REM DIRINDEX 1\2,1\3,1\4
REM DIRNAME folder01,folder02,folder03,folder04
TITLE ""
FILE "DISC3Track07.mp3" MP3
  TRACK 01 AUDIO
    TITLE "0:"
    INDEX 01 00:00:00
  TRACK 02 AUDIO
    TITLE "4:cjc105_4570"
    INDEX 01 00:00:15
  TRACK 03 AUDIO
    TITLE "0:"
    INDEX 01 00:03:00
  TRACK 04 AUDIO
    TITLE "3:cjc105_4571"
    INDEX 01 00:03:49
  TRACK 05 AUDIO
    TITLE "2:cjc105_4572"
    INDEX 01 00:05:01
  TRACK 06 AUDIO
    TITLE "3:cjc105_4573"
    INDEX 01 00:06:39
  TRACK 07 AUDIO
    TITLE "2:cjc105_4574"
    INDEX 01 00:07:29
  TRACK 08 AUDIO
    TITLE "3:cjc105_4575"
    INDEX 01 00:09:04
  TRACK 09 AUDIO
    TITLE "2:cjc105_4576"
    INDEX 01 00:10:08
  TRACK 10 AUDIO
    TITLE "3:cjc105_4577"
    INDEX 01 00:11:33
  TRACK 11 AUDIO
    TITLE "2:cjc105_4578"
    INDEX 01 00:12:60
  TRACK 12 AUDIO
    TITLE "3:cjc105_4579"
    INDEX 01 00:15:50
  TRACK 13 AUDIO
    TITLE "2:cjc105_4580"
    INDEX 01 00:16:55
  TRACK 14 AUDIO
    TITLE "3:cjc105_4581"
    INDEX 01 00:17:74
  TRACK 15 AUDIO
    TITLE "2:cjc105_4582"
    INDEX 01 00:19:20
  TRACK 16 AUDIO
    TITLE "3:cjc105_4583"
    INDEX 01 00:21:04
  TRACK 17 AUDIO
    TITLE "2:cjc105_4584"
    INDEX 01 00:22:21
  TRACK 18 AUDIO
    TITLE "3:cjc105_4585"
    INDEX 01 00:26:26
  TRACK 19 AUDIO
    TITLE "2:cjc105_4586"
    INDEX 01 00:27:55
  TRACK 20 AUDIO
    TITLE "3:cjc105_4587"
    INDEX 01 00:29:34
  TRACK 21 AUDIO
    TITLE "2:cjc105_4588"
    INDEX 01 00:31:02
  TRACK 22 AUDIO
    TITLE "3:cjc105_4589"
    INDEX 01 00:32:41
  TRACK 23 AUDIO
    TITLE "2:cjc105_4590"
    INDEX 01 00:33:66
  TRACK 24 AUDIO
    TITLE "3:cjc105_4591"
    INDEX 01 00:35:39
  TRACK 25 AUDIO
    TITLE "2:cjc105_4592"
    INDEX 01 00:36:52
  TRACK 26 AUDIO
    TITLE "3:cjc105_4593"
    INDEX 01 00:38:06
  TRACK 27 AUDIO
    TITLE "2:cjc105_4594"
    INDEX 01 00:39:23
  TRACK 28 AUDIO
    TITLE "3:cjc105_4595"
    INDEX 01 00:41:14
  TRACK 29 AUDIO
    TITLE "2:cjc105_4596"
    INDEX 01 00:42:33
  TRACK 30 AUDIO
    TITLE "3:cjc105_4597"
    INDEX 01 00:43:74
  TRACK 31 AUDIO
    TITLE "2:cjc105_4598"
    INDEX 01 00:45:06
  TRACK 32 AUDIO
    TITLE "3:cjc105_4599"
    INDEX 01 00:47:05
  TRACK 33 AUDIO
    TITLE "2:cjc105_4600"
    INDEX 01 00:48:36
  TRACK 34 AUDIO
    TITLE "3:cjc105_4601"
    INDEX 01 00:49:74
  TRACK 35 AUDIO
    TITLE "2:cjc105_4602"
    INDEX 01 00:51:36
  TRACK 36 AUDIO
    TITLE "3:cjc105_4603"
    INDEX 01 00:53:29
  TRACK 37 AUDIO
    TITLE "2:cjc105_4604"
    INDEX 01 00:54:34
  TRACK 38 AUDIO
    TITLE "3:cjc105_4605"
    INDEX 01 00:56:02
  TRACK 39 AUDIO
    TITLE "2:cjc105_4606"
    INDEX 01 00:57:60
  TRACK 40 AUDIO
    TITLE "3:cjc105_4607"
    INDEX 01 00:58:69
  TRACK 41 AUDIO
    TITLE "2:cjc105_4608"
    INDEX 01 01:00:43
  TRACK 42 AUDIO
    TITLE "3:cjc105_4609"
    INDEX 01 01:02:46
  TRACK 43 AUDIO
    TITLE "2:cjc105_4610"
    INDEX 01 01:03:73
  TRACK 44 AUDIO
    TITLE "3:cjc105_4611"
    INDEX 01 01:05:54
  TRACK 45 AUDIO
    TITLE "2:cjc105_4612"
    INDEX 01 01:07:45
  TRACK 46 AUDIO
    TITLE "3:cjc105_4613"
    INDEX 01 01:09:56
  TRACK 47 AUDIO
    TITLE "2:cjc105_4614"
    INDEX 01 01:11:00
  TRACK 48 AUDIO
    TITLE "3:cjc105_4615"
    INDEX 01 01:12:44
  TRACK 49 AUDIO
    TITLE "2:cjc105_4616"
    INDEX 01 01:14:29
  TRACK 50 AUDIO
    TITLE "3:cjc105_4617"
    INDEX 01 01:16:07
  TRACK 51 AUDIO
    TITLE "2:cjc105_4618"
    INDEX 01 01:17:57
  TRACK 52 AUDIO
    TITLE "3:cjc105_4619"
    INDEX 01 01:19:66
  TRACK 53 AUDIO
    TITLE "2:cjc105_4620"
    INDEX 01 01:21:35
  TRACK 54 AUDIO
    TITLE "3:cjc105_4621"
    INDEX 01 01:23:11
  TRACK 55 AUDIO
    TITLE "2:cjc105_4622"
    INDEX 01 01:24:39
  TRACK 56 AUDIO
    TITLE "3:cjc105_4623"
    INDEX 01 01:26:52
  TRACK 57 AUDIO
    TITLE "2:cjc105_4624"
    INDEX 01 01:27:48
  TRACK 58 AUDIO
    TITLE "3:cjc105_4625"
    INDEX 01 01:29:39
  TRACK 59 AUDIO
    TITLE "2:cjc105_4626"
    INDEX 01 01:30:50
  TRACK 60 AUDIO
    TITLE "3:cjc105_4627"
    INDEX 01 01:32:53
  TRACK 61 AUDIO
    TITLE "2:cjc105_4628"
    INDEX 01 01:33:54
  TRACK 62 AUDIO
    TITLE "3:cjc105_4629"
    INDEX 01 01:35:02
  TRACK 63 AUDIO
    TITLE "2:cjc105_4630"
    INDEX 01 01:36:23
  TRACK 64 AUDIO
    TITLE "3:cjc105_4631"
    INDEX 01 01:37:50
  TRACK 65 AUDIO
    TITLE "2:cjc105_4632"
    INDEX 01 01:39:08
  TRACK 66 AUDIO
    TITLE "3:cjc105_4633"
    INDEX 01 01:40:48
  TRACK 67 AUDIO
    TITLE "2:cjc105_4634"
    INDEX 01 01:42:00
  TRACK 68 AUDIO
    TITLE "3:cjc105_4635"
    INDEX 01 01:45:34
  TRACK 69 AUDIO
    TITLE "2:cjc105_4636"
    INDEX 01 01:46:35
  TRACK 70 AUDIO
    TITLE "3:cjc105_4637"
    INDEX 01 01:47:66
  TRACK 71 AUDIO
    TITLE "2:cjc105_4638"
    INDEX 01 01:48:67
  TRACK 72 AUDIO
    TITLE "0:"
    INDEX 01 01:50:07
